<?xml version="1.0" encoding="utf-8"?>
<!-- Generator: Adobe Illustrator 18.1.0, SVG Export Plug-In . SVG Version: 6.00 Build 0)  -->
<!DOCTYPE svg PUBLIC "-//W3C//DTD SVG 1.1//EN" "http://www.w3.org/Graphics/SVG/1.1/DTD/svg11.dtd">
<svg version="1.1" id="Layer_1" xmlns="http://www.w3.org/2000/svg" xmlns:xlink="http://www.w3.org/1999/xlink" x="0px" y="0px"
	 viewBox="0 208 650 639" enable-background="new 0 208 650 639" xml:space="preserve">
<g id="New_Symbol_83">
	<g>
		<g>
			<path fill="#415B63" d="M542.3,544.3h-68.7c-3.7-13-9.3-26-16.7-35.3l44.6-44.6c9.3-9.3,9.3-29.7,0-39L484.7,405
				c-9.3-9.3-29.7-9.3-39,0l-46.4,44.6c-13-7.4-26-13-42.7-16.7v-57.6c0-16.7-13-26-26-26h-26c-14.9,0-26,13-26,26v57.6
				c-16.7,3.7-31.6,9.3-44.6,20.4l-39-39c-9.3-9.3-26-9.3-39,0l-16.7,18.6c-9.3,11.1-9.3,31.6,0,40.9l39,39
				c-9.3,13-16.7,29.7-20.4,44.6h-50.1c-16.7,0-26,13-26,26v26c0,16.7,13,26,26,26h55.7c5.6,16.7,13,33.4,22.3,44.6l-35.3,35.3
				c-9.3,9.3-9.3,29.7,0,39l18.6,20.4c9.3,9.3,29.7,9.3,39,0l42.7-42.7c9.3,9.3,26,16.7,42.7,18.6v55.7c0,16.7,13,26,26,26h26
				c16.7,0,26-13,26-26v-65c13-3.7,26-9.3,39-20.4l42.7,42.7c9.3,9.3,29.7,9.3,39,0l20.4-20.4c9.3-9.3,9.3-29.7,0-39l-48.3-39
				c7.4-13,9.3-26,13-39h65c16.7,0,26-13,26-26v-29.7C568.3,557.3,555.3,544.3,542.3,544.3z M317.6,657.6
				c-35.3,0-68.7-29.7-68.7-68.7s29.7-68.7,68.7-68.7s68.7,29.7,68.7,68.7C386.3,629.7,354.7,657.6,317.6,657.6z"/>
		</g>
	</g>
</g>
</svg>
