<?xml version="1.0" encoding="utf-8"?>
<!-- Generator: Adobe Illustrator 18.1.0, SVG Export Plug-In . SVG Version: 6.00 Build 0)  -->
<!DOCTYPE svg PUBLIC "-//W3C//DTD SVG 1.1//EN" "http://www.w3.org/Graphics/SVG/1.1/DTD/svg11.dtd">
<svg version="1.1" id="Layer_1" xmlns="http://www.w3.org/2000/svg" xmlns:xlink="http://www.w3.org/1999/xlink" x="0px" y="0px"
	 viewBox="0 0 35 35" enable-background="new 0 0 35 35" xml:space="preserve">
<g id="New_Symbol_83">
	<g>
		<g>
			<path fill="#1EAEDB" d="M29.2,14.5h-3.7c-0.2-0.7-0.5-1.4-0.9-1.9l2.4-2.4c0.5-0.5,0.5-1.6,0-2.1L26.1,7c-0.5-0.5-1.6-0.5-2.1,0
				l-2.5,2.4c-0.7-0.4-1.4-0.7-2.3-0.9V5.4c0-0.9-0.7-1.4-1.4-1.4h-1.4C15.6,4,15,4.7,15,5.4v3.1c-0.9,0.2-1.7,0.5-2.4,1.1l-2.1-2.1
				C10,7,9.1,7,8.4,7.5l-0.9,1C7,9.1,7,10.2,7.5,10.7l2.1,2.1c-0.5,0.7-0.9,1.6-1.1,2.4H5.8c-0.9,0-1.4,0.7-1.4,1.4V18
				c0,0.9,0.7,1.4,1.4,1.4h3c0.3,0.9,0.7,1.8,1.2,2.4l-1.9,1.9c-0.5,0.5-0.5,1.6,0,2.1l1,1.1c0.5,0.5,1.6,0.5,2.1,0l2.3-2.3
				c0.5,0.5,1.4,0.9,2.3,1v3c0,0.9,0.7,1.4,1.4,1.4h1.4c0.9,0,1.4-0.7,1.4-1.4v-3.5c0.7-0.2,1.4-0.5,2.1-1.1l2.3,2.3
				c0.5,0.5,1.6,0.5,2.1,0l1.1-1.1c0.5-0.5,0.5-1.6,0-2.1L25,21c0.4-0.7,0.5-1.4,0.7-2.1h3.5c0.9,0,1.4-0.7,1.4-1.4v-1.6
				C30.6,15.2,29.9,14.5,29.2,14.5z M17.1,20.6c-1.9,0-3.7-1.6-3.7-3.7s1.6-3.7,3.7-3.7s3.7,1.6,3.7,3.7
				C20.8,19.1,19.1,20.6,17.1,20.6z"/>
		</g>
	</g>
</g>
</svg>
