<?xml version="1.0" encoding="utf-8"?>
<!-- Generator: Adobe Illustrator 18.1.0, SVG Export Plug-In . SVG Version: 6.00 Build 0)  -->
<!DOCTYPE svg PUBLIC "-//W3C//DTD SVG 1.1//EN" "http://www.w3.org/Graphics/SVG/1.1/DTD/svg11.dtd">
<svg version="1.1" id="Layer_1" xmlns="http://www.w3.org/2000/svg" xmlns:xlink="http://www.w3.org/1999/xlink" x="0px" y="0px"
	 viewBox="0 0 20 20" enable-background="new 0 0 20 20" xml:space="preserve">
<g id="New_Symbol_83">
	<g>
		<g>
			<path fill="#FFFFFF" d="M16.7,8.3h-2.1c-0.1-0.4-0.3-0.8-0.5-1.1l1.4-1.4c0.3-0.3,0.3-0.9,0-1.2L14.9,4c-0.3-0.3-0.9-0.3-1.2,0
				l-1.4,1.4C11.9,5.2,11.5,5,11,4.9V3.1c0-0.5-0.4-0.8-0.8-0.8H9.4c-0.5,0-0.8,0.4-0.8,0.8v1.8C8.1,5,7.6,5.2,7.2,5.5L6,4.3
				C5.7,4,5.2,4,4.8,4.3L4.3,4.9c-0.3,0.3-0.3,0.9,0,1.2l1.2,1.2C5.2,7.7,5,8.2,4.9,8.7H3.3c-0.5,0-0.8,0.4-0.8,0.8v0.8
				c0,0.5,0.4,0.8,0.8,0.8H5c0.2,0.5,0.4,1,0.7,1.4l-1.1,1.1c-0.3,0.3-0.3,0.9,0,1.2l0.6,0.6c0.3,0.3,0.9,0.3,1.2,0l1.3-1.3
				C8,14.4,8.5,14.6,9,14.7v1.7c0,0.5,0.4,0.8,0.8,0.8h0.8c0.5,0,0.8-0.4,0.8-0.8v-2c0.4-0.1,0.8-0.3,1.2-0.6l1.3,1.3
				c0.3,0.3,0.9,0.3,1.2,0l0.6-0.6c0.3-0.3,0.3-0.9,0-1.2L14.3,12c0.2-0.4,0.3-0.8,0.4-1.2h2c0.5,0,0.8-0.4,0.8-0.8V9.1
				C17.5,8.7,17.1,8.3,16.7,8.3z M9.8,11.8c-1.1,0-2.1-0.9-2.1-2.1c0-1.2,0.9-2.1,2.1-2.1c1.2,0,2.1,0.9,2.1,2.1
				C11.9,10.9,10.9,11.8,9.8,11.8z"/>
		</g>
	</g>
</g>
</svg>
