<?xml version="1.0" encoding="utf-8"?>
<!-- Generator: Adobe Illustrator 18.1.0, SVG Export Plug-In . SVG Version: 6.00 Build 0)  -->
<!DOCTYPE svg PUBLIC "-//W3C//DTD SVG 1.1//EN" "http://www.w3.org/Graphics/SVG/1.1/DTD/svg11.dtd">
<svg version="1.1" id="Layer_1" xmlns="http://www.w3.org/2000/svg" xmlns:xlink="http://www.w3.org/1999/xlink" x="0px" y="0px"
	 viewBox="6.1 425.1 558 501" enable-background="new 6.1 425.1 558 501" xml:space="preserve">
<circle fill="#48C019" cx="285.1" cy="673.1" r="238.5"/>
<path fill="#48C019" d="M481,1535.3H96.6c-40.9,0-72.4-33.4-72.4-72.4v-325c0-40.9,31.6-72.4,72.4-72.4h386.3
	c40.9,0,72.4,33.4,72.4,72.4v325C555.3,1503.7,521.9,1535.3,481,1535.3z"/>
<g>
	<path fill="#FFFFFF" d="M1277.3,665c24.1,3.7,44.6,16.7,57.6,27.9c13,16.7,20.4,31.6,20.4,52c0,16.7-3.7,33.4-13,44.6
		c-7.4,13-16.7,24.1-27.9,31.6c-13,7.4-24.1,16.7-40.9,20.4c-16.7,3.7-33.4,7.4-48.3,7.4c-20.4,0-37.1-3.7-52-7.4
		c-14.9-3.7-31.6-7.4-44.6-16.7l7.4-61.3c13,7.4,24.1,13,40.9,16.7c16.7,3.7,27.9,7.4,44.6,7.4c16.7,0,31.6-3.7,40.9-7.4
		c13-7.4,16.7-16.7,16.7-31.6c0-24.1-20.4-40.9-57.6-40.9c-7.4,0-16.7,0-20.4,0c-7.4,0-13,0-20.4,0v-57.6c13,0,20.4-3.7,31.6-7.4
		c13-3.7,20.4-3.7,27.9-7.4c7.4-3.7,16.7-7.4,20.4-16.7c3.7-3.7,7.4-13,7.4-20.4c0-13-3.7-20.4-13-24.1c-7.4-3.7-20.4-7.4-37.1-7.4
		c-13,0-24.1,3.7-37.1,7.4s-24.1,13-37.1,20.4l-16.7-57.6c16.7-7.4,27.9-16.7,48.3-24.1c16.7-7.4,37.1-7.4,61.3-7.4
		c16.7,0,31.6,0,44.6,3.7c13,3.7,24.1,7.4,37.1,16.7c7.4,7.4,16.7,16.7,24.1,27.9c3.7,13,7.4,20.4,7.4,31.6c0,7.4,0,20.4-3.7,27.9
		c-3.7,7.4-7.4,16.7-13,20.4c-3.7,7.4-13,13-20.4,16.7C1297.7,661.3,1288.5,665,1277.3,665z"/>
</g>
<rect x="-1045" y="24" fill="#2A3C43" width="130" height="130"/>
<text transform="matrix(1 0 0 1 -1007.0042 176.8053)" fill="#2A3C43" font-family="'HelveticaNeue-Bold'" font-size="14">#2a3c43</text>
<text transform="matrix(1 0 0 1 -994.1722 9.8053)" fill="#2A3C43" font-family="'HelveticaNeue'" font-size="16">Text</text>
<text transform="matrix(1 0 0 1 -994.1722 240.8053)" fill="#2A3C43" font-family="'HelveticaNeue'" font-size="16">Text</text>
<text transform="matrix(1 0 0 1 -1061.1721 473.8053)" fill="#2A3C43" font-family="'HelveticaNeue'" font-size="16">Strokes/Backgrounds</text>
<rect x="-1045" y="253" fill="#8F999B" width="130" height="130"/>
<text transform="matrix(1 0 0 1 -1007.0042 405.8053)" fill="#2A3C43" font-family="'HelveticaNeue-Bold'" font-size="14">#8f999b</text>
<rect x="-1045" y="491" fill="#EDEFEF" width="130" height="130"/>
<text transform="matrix(1 0 0 1 -1007.0042 643.8053)" fill="#2A3C43" font-family="'HelveticaNeue-Bold'" font-size="14">#edefef</text>
<rect x="-395" y="24" fill="#CFF1FC" width="130" height="130"/>
<text transform="matrix(1 0 0 1 -352.488 176.8053)" fill="#2A3C43" font-family="'HelveticaNeue-Bold'" font-size="14">#cff1fc</text>
<rect x="-395" y="252" fill="#E4F5F9" width="130" height="130"/>
<text transform="matrix(1 0 0 1 -352.488 404.8053)" fill="#2A3C43" font-family="'HelveticaNeue-Bold'" font-size="14">#e4f5f9</text>
<text transform="matrix(1 0 0 1 -377.3689 9.8053)" fill="#2A3C43" font-family="'HelveticaNeue'" font-size="16">Backgrounds</text>
<rect x="-231" y="24" fill="#EEC317" width="130" height="130"/>
<g>
	<text transform="matrix(1 0 0 1 -193.3157 176.8053)" fill="#2A3C43" font-family="'HelveticaNeue-Bold'" font-size="14">#eec317</text>
</g>
<rect x="-231" y="252" fill="#F4DB2A" width="130" height="130"/>
<g>
	<text transform="matrix(1 0 0 1 -192.2727 404.8053)" fill="#2A3C43" font-family="'HelveticaNeue-Bold'" font-size="14">#f4db2a</text>
</g>
<rect x="-720" y="24" fill="#D65129" width="130" height="130"/>
<text transform="matrix(1 0 0 1 -682.7908 176.8053)" fill="#2A3C43" font-family="'HelveticaNeue-Bold'" font-size="14">#d65129</text>
<text transform="matrix(1 0 0 1 -673.9861 9.8053)" fill="#2A3C43" font-family="'HelveticaNeue'" font-size="16">Links</text>
<rect x="-720" y="252" fill="#E6723D" width="130" height="130"/>
<text transform="matrix(1 0 0 1 -682.7908 404.8053)" fill="#2A3C43" font-family="'HelveticaNeue-Bold'" font-size="14">#E6723D</text>
<rect x="-558" y="24" fill="#1EAEDB" width="130" height="130"/>
<text transform="matrix(1 0 0 1 -520.9404 176.8053)" fill="#2A3C43" font-family="'HelveticaNeue-Bold'" font-size="14">#1eaedb</text>
<text transform="matrix(1 0 0 1 -539.5164 9.8053)" fill="#2A3C43" font-family="'HelveticaNeue'" font-size="16">Links / BTNS</text>
<rect x="-558" y="252" fill="#6FCAE8" width="130" height="130"/>
<text transform="matrix(1 0 0 1 -520.9404 404.8053)" fill="#2A3C43" font-family="'HelveticaNeue-Bold'" font-size="14">#6FCAE8</text>
<rect x="-883" y="24" fill="#48C019" width="130" height="130"/>
<text transform="matrix(1 0 0 1 -844.6677 176.8053)" fill="#2A3C43" font-family="'HelveticaNeue-Bold'" font-size="14">#48c019</text>
<text transform="matrix(1 0 0 1 -868.4096 9.8053)" fill="#2A3C43" font-family="'HelveticaNeue'" font-size="16">Primary BTN’s</text>
<rect x="-883" y="252" fill="#88DE68" width="130" height="130"/>
<text transform="matrix(1 0 0 1 -844.6677 404.8053)" fill="#2A3C43" font-family="'HelveticaNeue-Bold'" font-size="14">#88DE68</text>
<text transform="matrix(1 0 0 1 164.1318 811.1719)" fill="#FFFFFF" font-family="'HelveticaNeue-Medium'" font-size="392.3812">4</text>
</svg>
