<?xml version="1.0" encoding="utf-8"?>
<!-- Generator: Adobe Illustrator 18.1.0, SVG Export Plug-In . SVG Version: 6.00 Build 0)  -->
<!DOCTYPE svg PUBLIC "-//W3C//DTD SVG 1.1//EN" "http://www.w3.org/Graphics/SVG/1.1/DTD/svg11.dtd">
<svg version="1.1" id="Layer_1" xmlns="http://www.w3.org/2000/svg" xmlns:xlink="http://www.w3.org/1999/xlink" x="0px" y="0px"
	 viewBox="0 0 650 1200" enable-background="new 0 0 650 1200" xml:space="preserve">
<path fill="#D65129" d="M461,139.7c-82.8,0-150,61.1-150,136.3c0,45.1,24.2,84.8,61.1,109.7l-30.3,77.9l101.4-52.2
	c5.8,0.6,11.8,1.1,18,1.1c82.8,0,150-61.1,150-136.3S543.8,139.7,461,139.7z"/>
<g id="New_Symbol_83_1_">
	<g id="New_Symbol_43_1_">
		<g>
			<path fill="#A8A1A0" d="M425,691c-9.3-16.7-44.6-26-81.7-42.7s-44.6-20.4-44.6-20.4v-35.3c0,0,13-9.3,16.7-42.7
				c9.3,7.4,16.7-9.3,18.6-16.7c0-5.6,0-29.7-9.3-26c0-16.7,0-33.4,0-39c-3.7-29.7-29.7-59.4-72.4-59.4s-68.7,29.7-70.6,59.4
				c0,5.6,0,22.3,3.7,39c-9.3-3.7-13,16.7-13,26c0,5.6,9.3,22.3,16.7,20.4c3.7,33.4,16.7,42.7,16.7,42.7v35.3c0,0-9.3,7.4-44.6,20.4
				c-35.3,16.7-72.4,26-81.7,42.7c-5.6,13-3.7,107.7-3.7,107.7h178.3h178.3C432.4,802.4,434.3,707.7,425,691z"/>
		</g>
	</g>
</g>
</svg>
