<?xml version="1.0" encoding="utf-8"?>
<!-- Generator: Adobe Illustrator 18.1.0, SVG Export Plug-In . SVG Version: 6.00 Build 0)  -->
<!DOCTYPE svg PUBLIC "-//W3C//DTD SVG 1.1//EN" "http://www.w3.org/Graphics/SVG/1.1/DTD/svg11.dtd">
<svg version="1.1" id="Layer_1" xmlns="http://www.w3.org/2000/svg" xmlns:xlink="http://www.w3.org/1999/xlink" x="0px" y="0px"
	 viewBox="0 0 20 20" enable-background="new 0 0 20 20" xml:space="preserve">
<g id="New_Symbol_83">
	<g id="New_Symbol_43">
		<g>
			<path fill="#2A3D43" d="M17.8,13.2c-0.3-0.5-0.3-0.8-1.3-1.2c-1-0.4-1.2-0.6-1.2-0.6l0-0.9c0,0,0.4-0.3,0.5-1.2
				C16,9.4,16.3,9,16.3,8.8c0-0.2,0-0.8-0.3-0.7C16,7.6,16.1,7.2,16,7c-0.1-0.8-0.8-1.6-2-1.6c-1.2,0-1.9,0.8-2,1.6
				c0,0.2,0,0.6,0.1,1c-0.3-0.1-0.3,0.5-0.3,0.7c0,0.2,0.3,0.6,0.5,0.6c0.1,0.9,0.5,1.2,0.5,1.2L12,11.2c0.5,0.3,1.7,0.1,1.9,0.5
				c0.1,0.2,0.5,0.8,0.4,4.5H18C18,16.2,18.1,13.6,17.8,13.2z"/>
		</g>
		<g>
			<path fill="#2A3D43" d="M12.8,12.8c-0.3-0.5-1.4-0.8-2.5-1.3c-1.1-0.5-1.4-0.6-1.4-0.6l0-1.1c0,0,0.4-0.3,0.5-1.3
				C9.7,8.7,9.9,8.2,10,8c0-0.2,0-0.9-0.3-0.8C9.7,6.7,9.7,6.2,9.7,6C9.6,5.1,8.8,4.2,7.5,4.2C6.2,4.2,5.4,5.1,5.3,6
				c0,0.2,0,0.7,0.1,1.2C5.1,7.1,5,7.7,5,8c0,0.2,0.3,0.7,0.5,0.6c0.1,1,0.5,1.3,0.5,1.3l0,1.1c0,0-0.3,0.2-1.4,0.6
				c-1.1,0.5-2.2,0.8-2.5,1.3C1.9,13.3,2,16.2,2,16.2h5.5H13C13,16.2,13.1,13.3,12.8,12.8z"/>
		</g>
	</g>
</g>
</svg>
