<?xml version="1.0" encoding="utf-8"?>
<!-- Generator: Adobe Illustrator 18.1.0, SVG Export Plug-In . SVG Version: 6.00 Build 0)  -->
<!DOCTYPE svg PUBLIC "-//W3C//DTD SVG 1.1//EN" "http://www.w3.org/Graphics/SVG/1.1/DTD/svg11.dtd">
<svg version="1.1" id="Layer_1" xmlns="http://www.w3.org/2000/svg" xmlns:xlink="http://www.w3.org/1999/xlink" x="0px" y="0px"
	 viewBox="0 0 35 35" enable-background="new 0 0 35 35" xml:space="preserve">
<g id="New_Symbol_83">
	<g id="New_Symbol_43">
		<g>
			<path fill="#979A9B" d="M31.1,23.1c-0.5-0.9-0.5-1.4-2.3-2.1s-2.1-1.1-2.1-1.1v-1.6c0,0,0.7-0.5,0.9-2.1c0.4,0.2,0.9-0.5,0.9-0.9
				s0-1.4-0.5-1.2c0-0.9,0.2-1.6,0-1.9c-0.2-1.4-1.4-2.8-3.5-2.8s-3.3,1.4-3.5,2.8c0,0.3,0,1.1,0.2,1.8c-0.5-0.2-0.5,0.9-0.5,1.2
				s0.5,1.1,0.9,1.1c0.2,1.6,0.9,2.1,0.9,2.1L21,19.6c0.9,0.5,3,0.2,3.3,0.9c0.2,0.3,0.9,1.4,0.7,7.9h6.5
				C31.5,28.4,31.7,23.8,31.1,23.1z"/>
		</g>
		<g>
			<path fill="#979A9B" d="M22.4,22.4C21.9,21.5,20,21,18,20.1s-2.4-1.1-2.4-1.1v-1.9c0,0,0.7-0.5,0.9-2.3c0.5,0.4,0.9-0.5,1-0.9
				c0-0.3,0-1.6-0.5-1.4c0-0.9,0-1.8,0-2.1c-0.2-1.6-1.6-3.2-3.9-3.2s-3.7,1.6-3.8,3.2c0,0.3,0,1.2,0.2,2.1
				c-0.5-0.2-0.7,0.9-0.7,1.4c0,0.3,0.5,1.2,0.9,1.1c0.2,1.8,0.9,2.3,0.9,2.3v1.9c0,0-0.5,0.4-2.4,1.1c-1.9,0.9-3.9,1.4-4.4,2.3
				c-0.3,0.7-0.2,5.8-0.2,5.8h9.6h9.6C22.8,28.4,22.9,23.3,22.4,22.4z"/>
		</g>
	</g>
</g>
</svg>
