<?xml version="1.0" encoding="utf-8"?>
<!-- Generator: Adobe Illustrator 18.1.0, SVG Export Plug-In . SVG Version: 6.00 Build 0)  -->
<!DOCTYPE svg PUBLIC "-//W3C//DTD SVG 1.1//EN" "http://www.w3.org/Graphics/SVG/1.1/DTD/svg11.dtd">
<svg version="1.1" id="Layer_1" xmlns="http://www.w3.org/2000/svg" xmlns:xlink="http://www.w3.org/1999/xlink" x="0px" y="0px"
	 viewBox="73 348 488 489" enable-background="new 73 348 488 489" xml:space="preserve">
<rect x="-997" y="39" fill="#2A3C43" width="130" height="130"/>
<text transform="matrix(1 0 0 1 -959.0042 191.8053)" fill="#2A3C43" font-family="'HelveticaNeue-Bold'" font-size="14">#2a3c43</text>
<text transform="matrix(1 0 0 1 -946.1722 24.8053)" fill="#2A3C43" font-family="'HelveticaNeue'" font-size="16">Text</text>
<text transform="matrix(1 0 0 1 -946.1722 255.8053)" fill="#2A3C43" font-family="'HelveticaNeue'" font-size="16">Text</text>
<text transform="matrix(1 0 0 1 -1013.1722 488.8053)" fill="#2A3C43" font-family="'HelveticaNeue'" font-size="16">Strokes/Backgrounds</text>
<rect x="-997" y="268" fill="#8F999B" width="130" height="130"/>
<text transform="matrix(1 0 0 1 -959.0042 420.8053)" fill="#2A3C43" font-family="'HelveticaNeue-Bold'" font-size="14">#8f999b</text>
<rect x="-997" y="506" fill="#EDEFEF" width="130" height="130"/>
<text transform="matrix(1 0 0 1 -959.0042 658.8053)" fill="#2A3C43" font-family="'HelveticaNeue-Bold'" font-size="14">#edefef</text>
<rect x="-347" y="39" fill="#CFF1FC" width="130" height="130"/>
<text transform="matrix(1 0 0 1 -304.488 191.8053)" fill="#2A3C43" font-family="'HelveticaNeue-Bold'" font-size="14">#cff1fc</text>
<rect x="-347" y="267" fill="#E4F5F9" width="130" height="130"/>
<text transform="matrix(1 0 0 1 -304.488 419.8053)" fill="#2A3C43" font-family="'HelveticaNeue-Bold'" font-size="14">#e4f5f9</text>
<text transform="matrix(1 0 0 1 -329.3689 24.8053)" fill="#2A3C43" font-family="'HelveticaNeue'" font-size="16">Backgrounds</text>
<rect x="-183" y="39" fill="#EEC317" width="130" height="130"/>
<g>
	<text transform="matrix(1 0 0 1 -145.3157 191.8053)" fill="#2A3C43" font-family="'HelveticaNeue-Bold'" font-size="14">#eec317</text>
</g>
<rect x="-183" y="267" fill="#F4DB2A" width="130" height="130"/>
<g>
	<text transform="matrix(1 0 0 1 -144.2727 419.8053)" fill="#2A3C43" font-family="'HelveticaNeue-Bold'" font-size="14">#f4db2a</text>
</g>
<rect x="-672" y="39" fill="#D65129" width="130" height="130"/>
<text transform="matrix(1 0 0 1 -634.7908 191.8053)" fill="#2A3C43" font-family="'HelveticaNeue-Bold'" font-size="14">#d65129</text>
<text transform="matrix(1 0 0 1 -625.9861 24.8053)" fill="#2A3C43" font-family="'HelveticaNeue'" font-size="16">Links</text>
<rect x="-672" y="267" fill="#E6723D" width="130" height="130"/>
<text transform="matrix(1 0 0 1 -634.7908 419.8053)" fill="#2A3C43" font-family="'HelveticaNeue-Bold'" font-size="14">#E6723D</text>
<rect x="-510" y="39" fill="#1EAEDB" width="130" height="130"/>
<text transform="matrix(1 0 0 1 -472.9404 191.8053)" fill="#2A3C43" font-family="'HelveticaNeue-Bold'" font-size="14">#1eaedb</text>
<text transform="matrix(1 0 0 1 -491.5164 24.8053)" fill="#2A3C43" font-family="'HelveticaNeue'" font-size="16">Links / BTNS</text>
<rect x="-510" y="267" fill="#6FCAE8" width="130" height="130"/>
<text transform="matrix(1 0 0 1 -472.9404 419.8053)" fill="#2A3C43" font-family="'HelveticaNeue-Bold'" font-size="14">#6FCAE8</text>
<rect x="-835" y="39" fill="#48C019" width="130" height="130"/>
<text transform="matrix(1 0 0 1 -796.6677 191.8053)" fill="#2A3C43" font-family="'HelveticaNeue-Bold'" font-size="14">#48c019</text>
<text transform="matrix(1 0 0 1 -820.4096 24.8053)" fill="#2A3C43" font-family="'HelveticaNeue'" font-size="16">Primary BTN’s</text>
<rect x="-835" y="267" fill="#88DE68" width="130" height="130"/>
<text transform="matrix(1 0 0 1 -796.6677 419.8053)" fill="#2A3C43" font-family="'HelveticaNeue-Bold'" font-size="14">#88DE68</text>
<text transform="matrix(1 0 0 1 198.0254 730.0728)" fill="#FFFFFF" font-family="'HelveticaNeue-Medium'" font-size="392.3812">4</text>
<polygon fill="#D65129" points="541.2,423.4 485.7,368 316.7,506.4 147.6,368 92.1,423.4 230.5,592.5 92.1,761.6 147.6,817 
	316.7,678.6 485.7,817 541.2,761.6 402.8,592.5 "/>
</svg>
