<?xml version="1.0" encoding="utf-8"?>
<!-- Generator: Adobe Illustrator 18.1.0, SVG Export Plug-In . SVG Version: 6.00 Build 0)  -->
<!DOCTYPE svg PUBLIC "-//W3C//DTD SVG 1.1//EN" "http://www.w3.org/Graphics/SVG/1.1/DTD/svg11.dtd">
<svg version="1.1" id="Layer_1" xmlns="http://www.w3.org/2000/svg" xmlns:xlink="http://www.w3.org/1999/xlink" x="0px" y="0px"
	 viewBox="0 0 35 35" enable-background="new 0 0 35 35" xml:space="preserve">
<path fill="#D65129" d="M25.9,34.1H5.2c-2.2,0-3.9-1.8-3.9-3.9V12.7c0-2.2,1.7-3.9,3.9-3.9h20.8c2.2,0,3.9,1.8,3.9,3.9v17.5
	C29.9,32.4,28.1,34.1,25.9,34.1z"/>
<g>
	<path fill="#FFFFFF" d="M18.3,21c1.3,0.2,2.4,0.9,3.1,1.5c0.7,0.9,1.1,1.7,1.1,2.8c0,0.9-0.2,1.8-0.7,2.4c-0.4,0.7-0.9,1.3-1.5,1.7
		c-0.7,0.4-1.3,0.9-2.2,1.1c-0.9,0.2-1.8,0.4-2.6,0.4c-1.1,0-2-0.2-2.8-0.4s-1.7-0.4-2.4-0.9l0.4-3.3c0.7,0.4,1.3,0.7,2.2,0.9
		s1.5,0.4,2.4,0.4s1.7-0.2,2.2-0.4c0.7-0.4,0.9-0.9,0.9-1.7c0-1.3-1.1-2.2-3.1-2.2c-0.4,0-0.9,0-1.1,0c-0.4,0-0.7,0-1.1,0v-3.1
		c0.7,0,1.1-0.2,1.7-0.4c0.7-0.2,1.1-0.2,1.5-0.4c0.4-0.2,0.9-0.4,1.1-0.9c0.2-0.2,0.4-0.7,0.4-1.1c0-0.7-0.2-1.1-0.7-1.3
		c-0.4-0.2-1.1-0.4-2-0.4c-0.7,0-1.3,0.2-2,0.4c-0.7,0.2-1.3,0.7-2,1.1l-0.9-3.1c0.9-0.4,1.5-0.9,2.6-1.3c0.9-0.4,2-0.4,3.3-0.4
		c0.9,0,1.7,0,2.4,0.2c0.7,0.2,1.3,0.4,2,0.9c0.4,0.4,0.9,0.9,1.3,1.5c0.2,0.7,0.4,1.1,0.4,1.7c0,0.4,0,1.1-0.2,1.5
		c-0.2,0.4-0.4,0.9-0.7,1.1c-0.2,0.4-0.7,0.7-1.1,0.9C19.4,20.8,18.9,21,18.3,21z"/>
</g>
</svg>
