<?xml version="1.0" encoding="utf-8"?>
<!-- Generator: Adobe Illustrator 18.1.0, SVG Export Plug-In . SVG Version: 6.00 Build 0)  -->
<!DOCTYPE svg PUBLIC "-//W3C//DTD SVG 1.1//EN" "http://www.w3.org/Graphics/SVG/1.1/DTD/svg11.dtd">
<svg version="1.1" id="Layer_1" xmlns="http://www.w3.org/2000/svg" xmlns:xlink="http://www.w3.org/1999/xlink" x="0px" y="0px"
	 viewBox="231 486 228 232" enable-background="new 231 486 228 232" xml:space="preserve">
<rect x="-1352.2" y="210.8" fill="#2A3C43" width="173.2" height="173.2"/>
<text transform="matrix(1 0 0 1 -1301.5962 414.2883)" fill="#2A3C43" font-family="'HelveticaNeue-Bold'" font-size="18.6475">#2a3c43</text>
<text transform="matrix(1 0 0 1 -1284.5042 191.8499)" fill="#2A3C43" font-family="'HelveticaNeue'" font-size="21.3115">Text</text>
<text transform="matrix(1 0 0 1 -1284.5042 499.5338)" fill="#2A3C43" font-family="'HelveticaNeue'" font-size="21.3115">Text</text>
<text transform="matrix(1 0 0 1 -1373.746 809.882)" fill="#2A3C43" font-family="'HelveticaNeue'" font-size="21.3115">Strokes/Backgrounds</text>
<rect x="-1352.2" y="515.8" fill="#8F999B" width="173.2" height="173.2"/>
<text transform="matrix(1 0 0 1 -1301.5962 719.3088)" fill="#2A3C43" font-family="'HelveticaNeue-Bold'" font-size="18.6475">#8f999b</text>
<rect x="-1352.2" y="832.8" fill="#EDEFEF" width="173.2" height="173.2"/>
<text transform="matrix(1 0 0 1 -1301.5962 1036.3164)" fill="#2A3C43" font-family="'HelveticaNeue-Bold'" font-size="18.6475">#edefef</text>
<rect x="-486.4" y="210.8" fill="#CFF1FC" width="173.2" height="173.2"/>
<text transform="matrix(1 0 0 1 -429.802 414.2883)" fill="#2A3C43" font-family="'HelveticaNeue-Bold'" font-size="18.6475">#cff1fc</text>
<rect x="-486.4" y="514.4" fill="#E4F5F9" width="173.2" height="173.2"/>
<text transform="matrix(1 0 0 1 -429.802 717.9767)" fill="#2A3C43" font-family="'HelveticaNeue-Bold'" font-size="18.6475">#e4f5f9</text>
<text transform="matrix(1 0 0 1 -462.9424 191.8499)" fill="#2A3C43" font-family="'HelveticaNeue'" font-size="21.3115">Backgrounds</text>
<rect x="-268" y="210.8" fill="#EEC317" width="173.2" height="173.2"/>
<g>
	<text transform="matrix(1 0 0 1 -217.7896 414.2883)" fill="#2A3C43" font-family="'HelveticaNeue-Bold'" font-size="18.6475">#eec317</text>
</g>
<rect x="-268" y="514.4" fill="#F4DB2A" width="173.2" height="173.2"/>
<g>
	<text transform="matrix(1 0 0 1 -216.4005 717.9767)" fill="#2A3C43" font-family="'HelveticaNeue-Bold'" font-size="18.6475">#f4db2a</text>
</g>
<rect x="-919.3" y="210.8" fill="#D65129" width="173.2" height="173.2"/>
<text transform="matrix(1 0 0 1 -869.7546 414.2883)" fill="#2A3C43" font-family="'HelveticaNeue-Bold'" font-size="18.6475">#d65129</text>
<text transform="matrix(1 0 0 1 -858.0271 191.8499)" fill="#2A3C43" font-family="'HelveticaNeue'" font-size="21.3115">Links</text>
<rect x="-919.3" y="514.4" fill="#E6723D" width="173.2" height="173.2"/>
<text transform="matrix(1 0 0 1 -869.7546 717.9767)" fill="#2A3C43" font-family="'HelveticaNeue-Bold'" font-size="18.6475">#E6723D</text>
<rect x="-703.5" y="210.8" fill="#1EAEDB" width="173.2" height="173.2"/>
<text transform="matrix(1 0 0 1 -654.175 414.2883)" fill="#2A3C43" font-family="'HelveticaNeue-Bold'" font-size="18.6475">#1eaedb</text>
<text transform="matrix(1 0 0 1 -678.9178 191.8499)" fill="#2A3C43" font-family="'HelveticaNeue'" font-size="21.3115">Links / BTNS</text>
<rect x="-703.5" y="514.4" fill="#6FCAE8" width="173.2" height="173.2"/>
<text transform="matrix(1 0 0 1 -654.175 717.9767)" fill="#2A3C43" font-family="'HelveticaNeue-Bold'" font-size="18.6475">#6FCAE8</text>
<rect x="-1136.4" y="210.8" fill="#48C019" width="173.2" height="173.2"/>
<text transform="matrix(1 0 0 1 -1085.3691 414.2883)" fill="#2A3C43" font-family="'HelveticaNeue-Bold'" font-size="18.6475">#48c019</text>
<text transform="matrix(1 0 0 1 -1116.9929 191.8499)" fill="#2A3C43" font-family="'HelveticaNeue'" font-size="21.3115">Primary BTN’s</text>
<rect x="-1136.4" y="514.4" fill="#88DE68" width="173.2" height="173.2"/>
<text transform="matrix(1 0 0 1 -1085.3691 717.9767)" fill="#2A3C43" font-family="'HelveticaNeue-Bold'" font-size="18.6475">#88DE68</text>
<g>
	<path fill="#D65129" d="M306.8,702v-52.1c-36.1-6.1-63.8-37.6-63.8-75.4c0-42.2,34.3-76.5,76.5-76.5h51c42.2,0,76.5,34.3,76.5,76.5
		c0,40.7-32,74.1-72.1,76.4L306.8,702z M319.5,523.5c-28.1,0-51,22.9-51,51s22.9,51,51,51h12.8V651l34-25.5h4.3
		c28.1,0,51-22.9,51-51s-22.9-51-51-51H319.5z"/>
</g>
<circle fill="#D65129" cx="306.8" cy="574.5" r="12.8"/>
<circle fill="#D65129" cx="345" cy="574.5" r="12.8"/>
<circle fill="#D65129" cx="383.2" cy="574.5" r="12.8"/>
</svg>
